<svg width="128" height="128" viewBox="0 0 128 128" fill="none" xmlns="http://www.w3.org/2000/svg">
<path d="M98 0H30C13.4315 0 0 13.4315 0 30V98C0 114.569 13.4315 128 30 128H98C114.569 128 128 114.569 128 98V30C128 13.4315 114.569 0 98 0Z" fill="#A9CBD4"/>
<mask id="mask0_44_42" style="mask-type:luminance" maskUnits="userSpaceOnUse" x="33" y="14" width="62" height="100">
<path d="M33 14H94.52V114H33V14Z" fill="white"/>
</mask>
<g mask="url(#mask0_44_42)">
<path d="M81.499 69.3385C77.609 69.3385 74.122 71.062 71.734 73.775L65.615 69.443C66.2645 67.655 66.6375 65.7345 66.6375 63.7245C66.6375 61.7495 66.2775 59.861 65.6495 58.0995L71.7545 53.8135C74.1425 56.5125 77.6205 58.2265 81.499 58.2265C88.678 58.2265 94.52 52.386 94.52 45.2055C94.52 38.0255 88.678 32.1845 81.499 32.1845C74.32 32.1845 68.478 38.025 68.478 45.205C68.478 46.49 68.672 47.7295 69.0205 48.903L62.911 53.1915C60.3071 49.9567 56.5973 47.8008 52.4975 47.14V39.777C58.3955 38.5385 62.84 33.298 62.84 27.036C62.84 19.856 56.998 14.015 49.8185 14.015C42.639 14.015 36.798 19.855 36.798 27.036C36.798 33.214 41.127 38.39 46.9075 39.717V47.176C39.0185 48.561 33 55.445 33 63.7245C33 72.0445 39.078 78.954 47.0235 80.2915V88.1675C41.184 89.451 36.7975 94.6585 36.7975 100.879C36.7975 108.059 42.6395 113.9 49.819 113.9C56.9985 113.9 62.84 108.059 62.84 100.879C62.84 94.6585 58.4535 89.451 52.614 88.1675V80.2915C56.6356 79.614 60.274 77.498 62.8515 74.3375L69.0115 78.6975C68.6599 79.8867 68.4802 81.12 68.478 82.36C68.478 89.54 74.3195 95.381 81.499 95.381C88.678 95.381 94.52 89.54 94.52 82.36C94.52 75.18 88.678 69.3385 81.499 69.3385ZM81.499 38.8925C84.9805 38.8925 87.812 41.725 87.812 45.2055C87.812 48.686 84.9805 51.5185 81.499 51.5185C78.0175 51.5185 75.186 48.686 75.186 45.2055C75.186 41.725 78.0175 38.8925 81.499 38.8925ZM43.5055 27.036C43.5055 23.556 46.3375 20.723 49.819 20.723C53.3 20.723 56.132 23.5555 56.132 27.036C56.132 30.5165 53.3 33.349 49.819 33.349C46.3375 33.349 43.5055 30.5165 43.5055 27.036ZM56.132 100.879C56.132 104.359 53.3 107.192 49.819 107.192C46.3375 107.192 43.5055 104.359 43.5055 100.879C43.5055 97.398 46.3375 94.5655 49.819 94.5655C53.3 94.5655 56.132 97.3985 56.132 100.879ZM49.8185 72.529C44.963 72.529 41.0125 68.58 41.0125 63.7245C41.0125 58.869 44.9625 54.919 49.818 54.919C54.6735 54.919 58.6235 58.869 58.6235 63.7245C58.6235 68.58 54.6735 72.529 49.8185 72.529ZM81.499 88.673C78.0175 88.673 75.186 85.84 75.186 82.36C75.186 78.8795 78.0175 76.047 81.499 76.047C84.9805 76.047 87.812 78.8795 87.812 82.36C87.812 85.8405 84.9805 88.673 81.499 88.673Z" fill="black"/>
</g>
</svg>
