<svg width="128" height="128" viewBox="0 0 128 128" fill="none" xmlns="http://www.w3.org/2000/svg">
<path d="M117.544 26.8C115.812 26.856 116.344 27.356 112.62 28.276C108.41 28.7118 104.243 29.4985 100.164 30.628C88.024 35.72 85.588 53.124 74.564 59.356C66.312 64.016 57.992 64.388 50.508 66.732C45.0807 68.591 40.0693 71.4935 35.756 75.276C32.296 78.256 32.208 80.876 28.592 84.62C24.728 88.62 13.228 84.688 8.02002 90.808C9.70002 92.504 10.42 92.98 13.744 92.54C13.06 93.84 9.02402 94.94 9.81202 96.84C10.644 98.84 20.404 100.212 29.276 94.84C33.408 92.344 36.7 88.748 43.136 87.892C52.375 87.3966 61.6393 88.1038 70.696 89.996C69.0168 93.7951 66.7935 97.3294 64.096 100.488C63.384 101.256 65.524 101.34 67.968 100.888C71.7702 100.147 75.4384 98.8347 78.848 96.996C82.924 94.624 83.54 88.54 88.54 87.224C90.3579 89.3697 92.9164 90.7531 95.7073 91.0992C98.4982 91.4453 101.317 90.7287 103.604 89.092C99.48 87.924 98.34 79.144 99.732 75.272C101.052 71.608 102.356 65.748 103.684 60.908C105.112 55.708 105.636 49.152 107.364 46.508C109.587 43.5592 112.276 40.9922 115.324 38.908C116.838 37.8295 118.059 36.3897 118.876 34.7195C119.693 33.0493 120.079 31.2015 120 29.344C119.976 27.688 119.12 26.764 117.544 26.816V26.8Z" fill="#002B64"/>
<path d="M11.6 96.488C16.7834 97.3894 22.1192 96.6189 26.836 94.288C31.2259 91.576 35.7665 89.116 40.436 86.92C47.924 84.52 56.132 86.92 64.136 87.404C66.067 87.5378 68.0059 87.5084 69.932 87.316C72.912 85.484 72.852 78.628 75.752 78C75.5692 85.725 72.6847 93.1416 67.6 98.96C71.3646 98.3369 74.9193 96.801 77.9532 94.4867C80.9872 92.1724 83.408 89.1501 85.004 85.684C86.0969 83.5827 87.0328 81.4034 87.804 79.164C89.048 80.12 88.344 83.024 88.968 84.596C94.968 81.26 98.38 73.652 100.652 65.956C103.276 57.048 104.352 48.032 106.048 45.396C107.82 43.0554 110.036 41.086 112.568 39.6C113.979 38.8605 115.204 37.8101 116.149 36.5282C117.095 35.2463 117.738 33.7664 118.028 32.2C115.228 31.94 114.564 31.288 114.148 29.872C112.869 30.5629 111.433 30.9103 109.98 30.88C108.712 30.92 107.316 30.88 105.612 31.036C91.52 32.484 89.728 48.016 80.696 56.824C80.0319 57.4725 79.3235 58.0739 78.576 58.624C75.3001 60.8993 71.7301 62.7187 67.964 64.032C62.188 66.24 56.696 66.396 51.276 68.3C47.2934 69.703 43.5046 71.6048 40 73.96C39.2 74.52 38.4 75.092 37.704 75.672C35.9886 77.1405 34.5052 78.86 33.304 80.772C32.0613 82.7683 30.6149 84.6302 28.988 86.328C25.992 89.268 14.804 87.184 10.864 89.928C10.4397 90.2093 10.0886 90.5878 9.83997 91.032C11.988 92.008 13.44 91.408 15.896 91.684C16.22 94.032 10.796 95.424 11.596 96.504L11.6 96.488Z" fill="#C49A6C"/>
<path d="M100.924 36.864C101.445 37.306 102.09 37.5768 102.77 37.6397C103.451 37.7025 104.134 37.5543 104.728 37.2153C105.321 36.8762 105.795 36.3627 106.087 35.7445C106.378 35.1263 106.472 34.4334 106.356 33.76C103.256 33.5 101.46 34.552 100.924 36.864ZM114.832 32.836C113.834 34.4541 113.298 36.3149 113.284 38.216C113.284 38.704 112.916 39.016 112.908 38.284C112.901 36.3307 113.434 34.4135 114.448 32.744C114.8 32.104 115.028 32.368 114.832 32.836ZM114.296 32.4C113.024 34.1099 112.199 36.1104 111.896 38.22C111.848 38.704 111.456 39.02 111.516 38.256C111.803 36.0933 112.628 34.0372 113.916 32.276C114.34 31.684 114.536 31.968 114.296 32.4ZM113.812 31.86C112.174 33.5966 110.968 35.6946 110.292 37.984C110.204 38.46 109.788 38.728 109.892 37.984C110.565 35.643 111.778 33.4922 113.432 31.704C113.916 31.136 114.084 31.436 113.812 31.86ZM113.376 31.24C111.474 33.1182 109.951 35.3455 108.892 37.8C108.736 38.26 108.288 38.468 108.512 37.752C109.567 35.2396 111.106 32.9591 113.04 31.04C113.58 30.536 113.708 30.856 113.376 31.24Z" fill="#002B64"/>
</svg>
