<svg width="128" height="128" viewBox="0 0 128 128" fill="none" xmlns="http://www.w3.org/2000/svg">
<path d="M0 91.313H4.242V74.566L10.808 89.164C11.581 90.934 12.64 91.555 14.722 91.555C16.804 91.555 17.82 90.934 18.593 89.164L25.159 74.566V91.312H29.401V74.594C29.401 72.961 28.749 72.172 27.401 71.766C24.178 70.762 22.018 71.629 21.038 73.805L14.597 88.215L8.359 73.805C7.422 71.629 5.219 70.762 2 71.766C0.652 72.172 0 72.961 0 74.594L0 91.313ZM32.93 77.68H37.168V86.907C37.129 87.407 37.328 88.583 39.652 88.622H48.875V77.633H53.125C53.145 77.633 53.117 92.617 53.117 92.68C53.14 96.375 48.535 97.176 46.41 97.239H33.02V94.387L46.434 94.383C49.164 94.098 48.84 92.738 48.84 92.285V91.172H39.828C35.633 91.133 32.965 89.301 32.93 87.195C32.926 87.004 33.02 77.774 32.93 77.68Z" fill="#00618A"/>
<path d="M56.391 91.313H68.586C70.012 91.313 71.399 91.012 72.5 90.497C74.336 89.657 75.23 88.513 75.23 87.017V83.919C75.23 82.696 74.214 81.552 72.214 80.794C71.155 80.384 69.847 80.169 68.585 80.169H63.444C61.733 80.169 60.917 79.653 60.714 78.513C60.675 78.376 60.675 78.267 60.675 78.13V76.2C60.675 76.091 60.675 75.981 60.714 75.845C60.917 74.978 61.366 74.732 62.874 74.595L63.284 74.568H75.393V71.744H63.488C61.777 71.744 60.879 71.853 60.062 72.096C57.535 72.885 56.433 74.135 56.433 76.311V78.784C56.433 80.686 58.593 82.319 62.222 82.698L63.445 82.753H67.851C68.015 82.753 68.175 82.753 68.3 82.78C69.644 82.889 70.214 83.135 70.624 83.624C70.835 83.819 70.956 84.097 70.948 84.382V86.859C70.948 87.156 70.745 87.539 70.339 87.863C69.972 88.191 69.359 88.406 68.546 88.461L68.097 88.488H56.391V91.313ZM101.688 86.391C101.688 89.301 103.852 90.93 108.211 91.258L109.438 91.313H120.489V88.485H109.356C106.868 88.485 105.93 87.86 105.93 86.364V71.738H101.692V86.39L101.688 86.391ZM77.938 86.539V76.457C77.938 73.898 79.739 72.344 83.293 71.855C83.6722 71.8003 84.0549 71.7729 84.438 71.773H92.485C92.895 71.773 93.262 71.8 93.673 71.855C97.228 72.343 99.025 73.898 99.025 76.457V86.539C99.025 88.617 98.263 89.727 96.502 90.453L100.682 94.223H95.756L92.377 91.172L88.975 91.387H84.44C83.5971 91.3844 82.7586 91.2659 81.948 91.035C79.249 90.301 77.94 88.883 77.94 86.539H77.938ZM82.516 86.293C82.516 86.43 82.555 86.566 82.598 86.731C82.844 87.903 83.946 88.555 85.621 88.555H89.473L85.934 85.36H90.86L93.946 88.149C94.516 87.844 94.887 87.383 95.02 86.786C95.059 86.649 95.059 86.513 95.059 86.376V76.708C95.059 76.599 95.059 76.462 95.02 76.325C94.774 75.235 93.672 74.61 92.036 74.61H85.622C83.743 74.61 82.517 75.426 82.517 76.708L82.516 86.293Z" fill="#E48E00"/>
<path d="M124.219 67.047C121.614 66.977 119.621 67.219 117.918 67.938C117.434 68.141 116.66 68.145 116.582 68.751C116.848 69.032 116.891 69.45 117.102 69.79C117.508 70.45 118.196 71.329 118.809 71.79L120.883 73.274C122.156 74.051 123.582 74.497 124.813 75.274C125.536 75.735 126.254 76.313 126.961 76.833C127.309 77.087 127.543 77.489 128 77.649V77.575C127.762 77.27 127.699 76.852 127.48 76.536L126.515 75.571C125.574 74.321 124.378 73.223 123.105 72.309C122.089 71.582 119.824 70.598 119.398 69.418L119.324 69.344C120.043 69.266 120.887 69.004 121.547 68.828C122.664 68.527 123.66 68.605 124.809 68.308L126.368 67.859V67.566C125.786 66.968 125.372 66.179 124.735 65.636C123.079 64.226 121.266 62.812 119.399 61.632C118.364 60.98 117.087 60.558 115.989 60.003C115.622 59.816 114.973 59.722 114.727 59.409C114.153 58.675 113.84 57.745 113.395 56.889L110.727 51.256C110.165 49.971 109.797 48.701 109.094 47.549C105.731 42.014 102.106 38.674 96.492 35.393C95.301 34.694 93.859 34.42 92.344 34.061L89.895 33.913C89.399 33.702 88.883 33.093 88.415 32.8C86.556 31.624 81.786 29.07 80.407 32.429C79.54 34.55 81.708 36.62 82.485 37.695C83.028 38.449 83.727 39.293 84.114 40.14C84.372 40.695 84.415 41.253 84.634 41.843C85.173 43.296 85.642 44.874 86.341 46.218C86.693 46.898 87.079 47.613 87.525 48.218C87.798 48.589 88.267 48.757 88.341 49.331C87.884 49.972 87.857 50.964 87.599 51.776C86.439 55.428 86.876 59.967 88.564 62.674C89.08 63.502 90.298 65.283 91.974 64.6C93.439 64.002 93.111 62.155 93.529 60.522C93.627 60.155 93.568 59.881 93.752 59.635V59.709L95.088 62.377C96.076 63.967 97.826 65.627 99.311 66.748C100.084 67.33 100.69 68.338 101.686 68.678V68.6H101.612C101.417 68.303 101.116 68.178 100.87 67.936C100.288 67.366 99.643 66.659 99.167 66.006C97.815 64.174 96.62 62.166 95.534 60.076C95.014 59.08 94.561 57.978 94.124 56.963C93.956 56.572 93.96 55.979 93.608 55.779C93.128 56.521 92.421 57.123 92.049 58.002C91.455 59.404 91.381 61.119 91.158 62.893L91.01 62.967C89.979 62.717 89.615 61.655 89.233 60.744C88.26 58.439 88.081 54.724 88.936 52.072C89.155 51.385 90.155 49.22 89.749 48.588C89.558 47.955 88.921 47.588 88.565 47.104C88.0996 46.455 87.7019 45.76 87.378 45.03C86.585 43.229 86.214 41.214 85.378 39.397C84.98 38.526 84.304 37.647 83.749 36.874C83.132 36.019 82.444 35.39 81.968 34.354C81.8 33.987 81.57 33.397 81.82 33.018C81.898 32.764 82.015 32.659 82.265 32.577C82.695 32.245 83.894 32.686 84.339 32.87C85.53 33.366 86.523 33.835 87.53 34.503C88.01 34.823 88.499 35.444 89.085 35.616H89.753C90.796 35.854 91.964 35.686 92.941 35.983C94.664 36.506 96.211 37.323 97.609 38.21C101.882 40.905 105.375 44.745 107.765 49.327C108.152 50.065 108.316 50.768 108.656 51.55C109.34 53.128 110.199 54.753 110.879 56.296C111.559 57.839 112.219 59.39 113.176 60.671C113.68 61.343 115.629 61.702 116.512 62.077C117.133 62.339 118.149 62.612 118.735 62.968C119.86 63.644 120.946 64.448 122.001 65.191C122.524 65.566 124.142 66.379 124.224 67.046L124.219 67.047ZM91.082 38.805C90.6336 38.7978 90.186 38.8475 89.75 38.953V39.027H89.824C90.082 39.562 90.539 39.906 90.859 40.363L91.601 41.918L91.675 41.848C92.136 41.524 92.343 41.004 92.343 40.215C92.156 40.02 92.132 39.778 91.972 39.547C91.761 39.238 91.352 39.067 91.082 38.805Z" fill="#00618A"/>
</svg>
